<svg id="svg" xmlns="http://www.w3.org/2000/svg" xmlns:xlink="http://www.w3.org/1999/xlink" width="400" height="266.6666666666667" viewBox="0, 0, 400,266.6666666666667"><g id="svgg"><path id="path0" d="M262.138 44.063 C 259.882 44.631,257.019 47.687,256.602 49.972 C 256.532 50.354,256.271 51.387,256.022 52.267 C 255.584 53.812,255.648 59.497,256.125 61.457 C 257.100 65.466,261.481 71.075,266.798 75.122 C 274.669 81.114,276.089 83.303,276.089 89.449 C 276.089 94.033,275.853 94.884,273.778 97.770 C 270.836 101.863,265.743 103.834,260.494 102.911 C 257.570 102.397,254.330 102.483,253.167 103.105 C 251.712 103.884,250.457 103.469,246.026 100.747 C 235.417 94.228,230.595 92.928,218.215 93.249 C 213.310 93.376,210.775 93.597,209.244 94.030 C 206.828 94.714,206.589 94.778,204.622 95.266 C 200.767 96.221,196.680 97.974,184.960 103.697 C 176.611 107.774,173.535 108.937,169.578 109.514 C 168.123 109.726,166.373 109.983,165.689 110.084 C 165.004 110.186,162.020 110.260,159.057 110.250 C 154.280 110.233,153.574 110.307,152.836 110.904 L 152.004 111.578 152.797 113.211 C 153.719 115.109,153.650 115.150,151.569 113.930 C 144.668 109.886,131.630 114.814,125.774 123.681 C 120.773 131.252,121.134 135.956,126.513 133.329 C 128.714 132.255,130.844 131.459,130.844 131.713 C 130.844 131.772,130.431 133.081,129.925 134.621 C 127.502 142.000,130.135 145.608,134.565 140.978 C 135.781 139.707,136.933 138.667,137.126 138.667 C 137.319 138.667,137.852 138.267,138.311 137.778 C 139.238 136.791,140.524 136.469,139.733 137.422 C 139.490 137.716,139.382 137.956,139.494 137.956 C 139.606 137.956,139.465 138.510,139.182 139.189 C 138.412 141.032,138.495 145.156,139.317 145.900 C 140.271 146.764,140.534 146.687,144.552 144.378 C 148.970 141.838,153.497 140.333,157.926 139.933 C 158.056 139.921,158.283 139.791,158.430 139.644 C 159.270 138.804,162.398 139.396,164.298 140.753 C 167.678 143.169,176.809 147.063,181.472 148.079 C 181.885 148.168,184.017 148.689,186.210 149.235 L 190.198 150.229 188.606 152.359 C 186.683 154.930,185.035 156.677,182.013 159.347 C 180.034 161.094,178.886 162.038,176.335 164.015 C 174.632 165.334,173.578 165.955,172.649 166.186 C 169.044 167.083,166.267 170.405,165.486 174.756 C 165.381 175.342,164.543 176.902,163.625 178.221 C 161.975 180.592,160.245 183.067,157.181 187.441 C 156.315 188.677,155.395 189.900,155.137 190.159 C 154.878 190.417,154.667 190.844,154.667 191.107 C 154.667 191.370,154.537 191.639,154.378 191.704 C 154.124 191.808,151.916 194.768,150.933 196.321 C 146.891 202.711,144.392 205.355,142.063 205.705 C 141.115 205.847,139.923 206.180,139.414 206.446 C 138.905 206.712,138.320 206.930,138.114 206.931 C 137.907 206.932,137.213 207.321,136.572 207.794 C 132.297 210.948,132.125 216.345,136.356 214.577 C 137.031 214.294,137.037 214.313,136.467 214.966 C 134.273 217.473,132.129 223.582,132.464 226.370 C 133.066 231.386,135.164 232.197,136.826 228.056 C 137.912 225.349,140.307 222.143,144.260 218.106 C 146.266 216.057,148.114 213.720,149.321 211.706 C 150.367 209.961,151.323 208.453,151.445 208.356 C 151.568 208.258,152.207 207.325,152.867 206.283 C 153.846 204.735,155.841 201.982,157.419 200.000 C 157.575 199.804,158.542 198.483,159.569 197.063 C 160.596 195.643,161.663 194.203,161.940 193.863 C 163.427 192.041,165.181 189.809,168.675 185.293 C 172.009 180.985,172.770 180.201,174.121 179.685 C 177.154 178.527,179.643 175.944,180.324 173.249 C 180.669 171.883,181.106 171.439,185.019 168.481 C 187.392 166.687,189.893 164.790,190.578 164.266 C 194.883 160.967,197.356 159.298,198.258 159.082 C 198.825 158.946,199.475 158.689,199.703 158.511 C 199.930 158.332,200.559 158.106,201.100 158.008 C 201.641 157.910,202.255 157.722,202.464 157.591 C 202.673 157.460,203.004 157.319,203.200 157.278 C 203.396 157.236,204.071 157.044,204.701 156.851 L 205.847 156.500 205.239 157.450 C 204.905 157.972,204.441 158.600,204.208 158.844 C 203.849 159.221,202.425 162.606,202.151 163.733 C 202.104 163.929,201.861 164.569,201.611 165.156 C 197.746 174.238,203.101 180.194,210.292 174.809 C 210.889 174.362,213.778 173.232,216.711 172.298 C 219.644 171.365,223.693 170.054,225.708 169.386 C 227.723 168.718,230.443 167.869,231.753 167.498 C 233.062 167.128,235.253 166.482,236.622 166.061 C 242.341 164.305,243.554 164.549,243.557 167.457 C 243.560 169.949,246.206 172.598,247.827 171.731 C 248.451 171.397,248.509 171.117,248.308 169.409 C 248.021 166.967,248.046 166.972,250.985 169.870 C 255.739 174.559,260.992 175.358,258.790 171.058 C 258.198 169.903,253.852 163.086,253.553 162.844 C 253.432 162.747,253.030 162.107,252.660 161.422 C 250.022 156.550,246.810 154.741,242.628 155.771 C 241.867 155.958,240.844 156.197,240.356 156.301 C 239.867 156.405,238.027 156.946,236.267 157.503 C 234.507 158.061,230.907 159.189,228.267 160.011 C 225.627 160.833,222.052 161.967,220.323 162.530 C 218.595 163.094,217.019 163.556,216.822 163.556 C 216.624 163.556,215.959 163.786,215.343 164.067 C 214.726 164.348,213.373 164.822,212.335 165.121 L 210.447 165.663 211.257 164.343 C 212.217 162.776,212.278 162.693,213.713 160.978 C 214.327 160.244,215.053 159.644,215.326 159.644 C 215.599 159.644,215.822 159.458,215.822 159.230 C 215.822 159.001,215.924 158.916,216.047 159.040 C 216.485 159.478,219.475 156.952,220.697 155.111 L 221.936 153.244 225.190 153.207 C 226.980 153.187,229.004 153.128,229.689 153.077 C 235.639 152.631,237.399 152.428,237.973 152.121 C 238.339 151.925,238.718 151.844,238.815 151.941 C 239.001 152.127,243.776 150.883,244.421 150.480 C 244.629 150.349,245.086 150.198,245.436 150.144 C 246.316 150.007,249.010 148.613,249.328 148.130 C 249.472 147.912,249.592 147.864,249.595 148.023 C 249.605 148.568,253.929 145.276,255.589 143.459 C 259.145 139.569,260.606 134.993,260.616 127.717 C 260.623 122.700,260.744 122.474,264.544 120.390 C 266.404 119.369,271.347 116.114,272.356 115.245 C 272.844 114.823,273.857 113.961,274.607 113.328 C 287.087 102.790,289.425 83.684,279.467 73.620 C 278.000 72.138,276.416 70.629,275.947 70.266 C 275.479 69.903,273.828 68.638,272.279 67.454 C 267.780 64.015,266.034 61.433,267.171 59.897 C 268.284 58.393,272.799 57.721,282.411 57.630 C 284.971 57.605,285.574 57.494,285.759 57.011 C 286.007 56.367,284.604 54.970,284.052 55.312 C 283.877 55.420,283.733 55.328,283.733 55.108 C 283.733 54.875,283.448 54.798,283.052 54.924 C 282.677 55.043,282.280 54.994,282.170 54.814 C 282.059 54.635,282.366 54.459,282.851 54.422 C 283.336 54.386,284.135 54.326,284.626 54.289 C 285.536 54.221,286.200 53.137,285.635 52.641 C 285.469 52.496,282.933 51.614,280.000 50.681 C 275.841 49.360,274.119 48.614,272.178 47.296 C 267.629 44.205,264.969 43.349,262.138 44.063 " stroke="none" fill="#000000" fill-rule="evenodd"></path></g></svg>